<svg width="1200" height="630" viewBox="0 0 1200 630" fill="none" xmlns="http://www.w3.org/2000/svg">
<rect width="1200" height="630" fill="white"/>
<rect y="611.686" width="1200" height="18" fill="#41B883"/>
<text fill="#35495E" xml:space="preserve" style="white-space: pre" font-family="Fira Code" font-size="78" letter-spacing="0em"><tspan x="86.8047" y="285.066">{{name}}</tspan></text>
<text fill="#35495E" fill-opacity="0.7" xml:space="preserve" style="white-space: pre" font-family="Inter, Helvetica, sans-serif" font-size="30" letter-spacing="0em"><tspan x="92" y="360.409">{{line1}}&#10;</tspan><tspan x="92" y="415.409">{{line2}}&#10;</tspan><tspan x="92" y="470.409">{{line3}}</tspan></text>
<text fill="#35495E" fill-opacity="0.5" xml:space="preserve" style="white-space: pre" font-family="Fira Code" font-size="33.9548" letter-spacing="0em"><tspan x="93.5952" y="196.745">{{package}}</tspan></text>
<path d="M1124.53 60V126.67C1124.53 145.303 1109.4 160.407 1090.72 160.407C1072.05 160.407 1056.92 145.303 1056.92 126.67V60H1080.83V126.67C1080.83 132.122 1085.26 136.541 1090.72 136.541C1096.19 136.541 1100.61 132.122 1100.61 126.67V60H1124.53Z" fill="#35495E"/>
<path d="M1148.45 60V126.67C1148.45 158.484 1122.6 184.275 1090.72 184.275C1058.84 184.275 1033 158.484 1033 126.67V60H1056.92V126.67C1056.92 145.303 1072.05 160.407 1090.72 160.407C1109.4 160.407 1124.53 145.303 1124.53 126.67V60H1148.45Z" fill="#41B883"/>
<path d="M978.294 473.429C978.437 472.5 979.009 472 979.938 472H981.938C982.796 472 983.367 472.5 983.367 473.429C983.367 473.714 983.296 474.5 983.153 475.286L974.435 520.357C974.292 521.286 973.649 522 972.72 522H967.576C966.647 522 966.004 521.286 965.861 520.357L957.214 475.286C957.071 474.5 957 473.714 957 473.429C957 472.5 957.572 472 958.429 472H960.716C961.645 472 962.216 472.5 962.359 473.429L970.291 517.071L978.294 473.429Z" fill="#35495E"/>
<path d="M991.585 511.714V488.643C991.585 487.714 992.3 487 993.228 487H995.158C996.087 487 996.801 487.714 996.801 488.643V511.643C996.801 515.071 998.516 517.357 1001.95 517.357H1003.3C1006.73 517.357 1008.52 515.071 1008.52 511.643V488.643C1008.52 487.714 1009.23 487 1010.16 487H1012.09C1013.02 487 1013.74 487.714 1013.74 488.643V520.357C1013.74 521.286 1013.02 522 1012.09 522H1010.16C1009.23 522 1008.52 521.286 1008.52 520.357V519C1006.88 520.929 1004.38 522 1001.3 522C995.372 522 991.585 518.357 991.585 511.714Z" fill="#35495E"/>
<path d="M1030.24 505.071V511.643C1030.24 515.071 1031.96 517.357 1035.39 517.357H1037.25C1040.68 517.357 1042.39 515.071 1042.39 511.643V510.929C1042.39 510 1043.11 509.286 1044.03 509.286H1045.96C1046.89 509.286 1047.61 510 1047.61 510.929V511.5C1047.61 518.143 1043.75 522 1037.82 522H1034.82C1028.89 522 1025.03 518.143 1025.03 511.5V497.5C1025.03 490.857 1028.89 487 1034.82 487H1037.82C1043.75 487 1047.61 490.857 1047.61 497.5V503.429C1047.61 504.357 1046.89 505.071 1045.96 505.071H1030.24V505.071ZM1030.24 500.429H1042.39V497.357C1042.39 493.929 1040.68 491.643 1037.25 491.643H1035.39C1031.96 491.643 1030.24 493.929 1030.24 497.357V500.429V500.429Z" fill="#35495E"/>
<path d="M1082.33 511.5C1082.33 518.143 1077.76 522 1071.83 522H1068.97C1063.04 522 1058.47 518.143 1058.47 511.5V473.643C1058.47 472.714 1059.18 472 1060.11 472H1062.04C1062.97 472 1063.68 472.714 1063.68 473.643V511.214C1063.68 514.643 1065.4 517.214 1068.83 517.214H1071.97C1075.4 517.214 1077.12 514.643 1077.12 511.214V473.643C1077.12 472.714 1077.83 472 1078.76 472H1080.69C1081.62 472 1082.33 472.714 1082.33 473.643V511.5V511.5Z" fill="#35495E"/>
<path d="M1098.77 505.071C1094.19 503.714 1093.12 500.929 1093.12 496.786V495.286C1093.12 490.286 1096.7 487 1101.7 487H1106.91C1112.13 487 1115.42 489.857 1115.42 495.286V497.357C1115.42 498.286 1114.7 499 1113.77 499H1111.84C1110.99 499 1110.2 498.286 1110.2 497.214V495.071C1110.2 492.714 1108.56 491.786 1107.06 491.786H1101.48C1099.48 491.786 1098.34 493.357 1098.34 495.357V497.214C1098.34 498.286 1098.91 499.786 1100.48 500.286L1110.27 503.429C1113.63 504.5 1115.63 506.714 1115.63 511.429V513.643C1115.63 518.214 1112.56 522 1107.06 522H1101.13C1095.91 522 1093.05 519.286 1093.05 514.071V511.214C1093.05 510.286 1093.77 509.571 1094.69 509.571H1096.62C1097.48 509.571 1098.27 510.286 1098.27 511.214V513.5C1098.27 516.286 1099.48 517.214 1101.55 517.214H1106.63C1108.7 517.214 1110.41 516.286 1110.41 513.5V512.429C1110.41 509.143 1109.49 508.286 1106.77 507.5L1098.77 505.071Z" fill="#35495E"/>
<path d="M1130.99 505.071V511.643C1130.99 515.071 1132.71 517.357 1136.14 517.357H1138C1141.43 517.357 1143.14 515.071 1143.14 511.643V510.929C1143.14 510 1143.86 509.286 1144.79 509.286H1146.71C1147.64 509.286 1148.36 510 1148.36 510.929V511.5C1148.36 518.143 1144.5 522 1138.57 522H1135.57C1129.64 522 1125.78 518.143 1125.78 511.5V497.5C1125.78 490.857 1129.64 487 1135.57 487H1138.57C1144.5 487 1148.36 490.857 1148.36 497.5V503.429C1148.36 504.357 1147.64 505.071 1146.71 505.071H1130.99V505.071ZM1130.99 500.429H1143.14V497.357C1143.14 493.929 1141.43 491.643 1138 491.643H1136.14C1132.71 491.643 1130.99 493.929 1130.99 497.357V500.429Z" fill="#35495E"/>
<text fill="#35495E" fill-opacity="0.5" xml:space="preserve" style="white-space: pre" font-family="Inter, Helvetica, sans-serif" font-size="27.1639" letter-spacing="0em"><tspan x="694.756" y="561.251">Collection of Vue Composition Utils</tspan></text>
</svg>
